<?xml version="1.0" encoding="utf-8"?>
<svg xmlns="http://www.w3.org/2000/svg" width="12" height="12" viewBox="120 0 30 30">
  <g>
    <path d="M 137.65 10.42 L 137.65 14.45 M 135.25 10.42 L 135.25 14.45 M 132.85 10.42 L 132.85 14.45 M 143.65 11.2 C 143.95 11.07 144.25 11.07 144.55 11.2 C 144.85 11.2 145 11.33 145 11.59 C 145 12.24 145 12.76 145 13.41 C 145 13.54 144.85 13.67 144.7 13.8 C 144.4 13.8 143.95 13.8 143.65 13.8 M 130 15.49 C 130 13.8 130 11.59 130 9.51 C 130 9.12 130.45 8.73 131.2 8.73 C 134.95 8.6 139.15 8.6 142.6 8.73 C 143.2 8.86 143.35 9.12 143.5 9.38 C 143.65 11.33 143.65 13.41 143.5 15.36 C 143.5 15.62 143.2 16.14 142.45 16.27 C 138.55 16.27 134.8 16.27 130.9 16.27 C 130.3 16.14 130 15.88 130 15.49 Z" fill="none" stroke="rgb(0, 0, 0)" stroke-miterlimit="10" pointer-events="all" />
  </g>
</svg>